# xmcd CD database file
#
# Track frame offsets:
#	150
#	20027
#	40101
#	61410
#	86431
#	108092
#	126642
#	153513
#	172735
#	197633
#	219298
#	241976
#	277162
#	299098
#	321102
#	339885
#
# Disc length: 4775 seconds
#
# Revision: 1
# Processed by: cddbd v1.5.1PL2 Copyright (c) Steve Scherf et al.
# Submitted via: CDex 1.51
#
DISCID=e712a510
DTITLE=VARI - Smooth Jazz Cafe  2
DYEAR=1900
DGENRE=Jazz
TTITLE0=Maynard Ferguson - "Gonna Fl.. - Maynard Ferguson - "Gonna Fl..
TTITLE1=Noa and Pat Metheny - "Child O.. - Noa and Pat Metheny - "Child O..
TTITLE2=Dave Koz - "That's The Way I.. - Dave Koz - "That's The Way I..
TTITLE3=Brian Bromberg - "Through Th.. - Brian Bromberg - "Through Th..
TTITLE4=Bernard Oattes - "When I Go .. - Bernard Oattes - "When I Go ..
TTITLE5=Bobby Caldwell - "Where Is L.. - Bobby Caldwell - "Where Is L..
TTITLE6=Loud Jazz Band - "4ever2U" - Loud Jazz Band - "4ever2U"
TTITLE7=Lionel Richie - "Time" - Lionel Richie - "Time"
TTITLE8=David Benoit - "Miles After .. - David Benoit - "Miles After ..
TTITLE9=Basia and Spyro Gyra - "Spring.. - Basia and Spyro Gyra - "Spring..
TTITLE10=Kayah - "Jak lisc" - Kayah - "Jak lisc"
TTITLE11=Stanley Clarke - "East River.. - Stanley Clarke - "East River..
TTITLE12=Brenda Russell - "Soul Talking - Brenda Russell - "Soul Talking
TTITLE13=Carl Anderson - "Love Will F.. - Carl Anderson - "Love Will F..
TTITLE14=Gato Barbieri - "Europa" - Gato Barbieri - "Europa"
TTITLE15=Angelique Kidjo and Trilok Gur.. - Angelique Kidjo and Trilok Gur..
EXTD=
EXTT0=
EXTT1=
EXTT2=
EXTT3=
EXTT4=
EXTT5=
EXTT6=
EXTT7=
EXTT8=
EXTT9=
EXTT10=
EXTT11=
EXTT12=
EXTT13=
EXTT14=
EXTT15=
PLAYORDER=
